<svg xmlns="http://www.w3.org/2000/svg" width="32" height="32" viewBox="0 0 16 16" shape-rendering="crispEdges"><style>.halo { animation: pulse 3s ease-in-out infinite; } @keyframes pulse { 50% { opacity: .35 } }.fa { animation: fa .5s steps(1) infinite; } .fb { animation: fb .5s steps(1) infinite; } @keyframes fa { 50% { opacity: 0 } } @keyframes fb { 0% { opacity: 0 } 50% { opacity: 1 } }</style><defs><radialGradient id="h"><stop offset="0" stop-color="#ffb347" stop-opacity=".45"/><stop offset="1" stop-color="#ffb347" stop-opacity="0"/></radialGradient></defs><circle class="halo" cx="8" cy="7" r="8" fill="url(#h)" shape-rendering="auto"/><rect x="7" y="0" width="2" height="1" fill="#6b7a7c"/><rect x="6" y="1" width="1" height="1" fill="#6b7a7c"/><rect x="9" y="1" width="1" height="1" fill="#6b7a7c"/><rect x="6" y="2" width="4" height="1" fill="#6b7a7c"/><rect x="5" y="3" width="6" height="1" fill="#4a5658"/><rect x="5" y="4" width="1" height="1" fill="#6b7a7c"/><rect x="10" y="4" width="1" height="1" fill="#6b7a7c"/><rect x="5" y="5" width="1" height="1" fill="#6b7a7c"/><rect x="10" y="5" width="1" height="1" fill="#6b7a7c"/><rect x="5" y="6" width="1" height="1" fill="#6b7a7c"/><rect x="10" y="6" width="1" height="1" fill="#6b7a7c"/><rect x="5" y="7" width="1" height="1" fill="#6b7a7c"/><rect x="10" y="7" width="1" height="1" fill="#6b7a7c"/><rect x="5" y="8" width="1" height="1" fill="#6b7a7c"/><rect x="10" y="8" width="1" height="1" fill="#6b7a7c"/><rect x="5" y="9" width="1" height="1" fill="#6b7a7c"/><rect x="10" y="9" width="1" height="1" fill="#6b7a7c"/><rect x="5" y="10" width="6" height="1" fill="#4a5658"/><rect x="6" y="11" width="4" height="1" fill="#6b7a7c"/><g class="fa"><rect x="7" y="5" width="1" height="1" fill="#ffb347"/><rect x="6" y="6" width="1" height="1" fill="#ffb347"/><rect x="7" y="6" width="1" height="1" fill="#ffe08a"/><rect x="8" y="6" width="1" height="1" fill="#ffb347"/><rect x="6" y="7" width="1" height="1" fill="#ffb347"/><rect x="7" y="7" width="1" height="1" fill="#ffe08a"/><rect x="8" y="7" width="1" height="1" fill="#ffb347"/><rect x="6" y="8" width="1" height="1" fill="#e8743b"/><rect x="7" y="8" width="1" height="1" fill="#ffb347"/><rect x="8" y="8" width="1" height="1" fill="#e8743b"/></g><g class="fb"><rect x="8" y="5" width="1" height="1" fill="#ffb347"/><rect x="7" y="6" width="1" height="1" fill="#ffb347"/><rect x="8" y="6" width="1" height="1" fill="#ffe08a"/><rect x="9" y="6" width="1" height="1" fill="#ffb347"/><rect x="6" y="7" width="1" height="1" fill="#ffb347"/><rect x="7" y="7" width="2" height="1" fill="#ffe08a"/><rect x="9" y="7" width="1" height="1" fill="#ffb347"/><rect x="6" y="8" width="1" height="1" fill="#e8743b"/><rect x="7" y="8" width="2" height="1" fill="#ffb347"/><rect x="9" y="8" width="1" height="1" fill="#e8743b"/></g></svg>
